HIERARCHY
ROOT Hips
{
	OFFSET -3.958830 18.904000 13.208200
	CHANNELS 6 Xposition Yposition Zposition Zrotation Yrotation Xrotation 
	JOINT LHipJoint
	{
		OFFSET 0.000000 0.000000 0.000000
		CHANNELS 3 Zrotation Yrotation Xrotation
		JOINT LeftUpLeg
		{
			OFFSET 1.800000 -1.400000 0.085000
			CHANNELS 3 Zrotation Yrotation Xrotation
			JOINT LeftLeg
			{
				OFFSET 2.215000 -6.000000 0.000000
				CHANNELS 3 Zrotation Yrotation Xrotation
				JOINT LeftFoot
				{
					OFFSET 2.500000 -6.900000 0.000000
					CHANNELS 3 Zrotation Yrotation Xrotation
					JOINT LeftToeBase
					{
						OFFSET 0.200000 -0.500000 1.950000
						CHANNELS 3 Zrotation Yrotation Xrotation
						End Site
						{
							OFFSET 0.000000 0.000000 0.000000
						}
					}
				}
			}
		}
	}
	JOINT RHipJoint
	{
		OFFSET 0.000000 0.000000 0.000000
		CHANNELS 3 Zrotation Yrotation Xrotation
		JOINT RightUpLeg
		{
			OFFSET -1.800000 -1.400000 0.085000
			CHANNELS 3 Zrotation Yrotation Xrotation
			JOINT RightLeg
			{
				OFFSET -2.215000 -6.000000 0.000000
				CHANNELS 3 Zrotation Yrotation Xrotation
				JOINT RightFoot
				{
					OFFSET -2.500000 -6.900000 0.000000
					CHANNELS 3 Zrotation Yrotation Xrotation
					JOINT RightToeBase
					{
						OFFSET -0.200000 -0.500000 1.950000
						CHANNELS 3 Zrotation Yrotation Xrotation
						End Site
						{
							OFFSET 0.000000 0.000000 0.000000
						}
					}
				}
			}
		}
	}
	JOINT LowerBack
	{
		OFFSET 0.000000 0.000000 0.000000
		CHANNELS 3 Zrotation Yrotation Xrotation
		JOINT Spine
		{
			OFFSET -0.087000 1.940000 -0.288900
			CHANNELS 3 Zrotation Yrotation Xrotation
			JOINT Spine1
			{
				OFFSET 0.000000 1.950000 0.060000
				CHANNELS 3 Zrotation Yrotation Xrotation
				JOINT Neck
				{
					OFFSET 0.000000 0.000000 0.000000
					CHANNELS 3 Zrotation Yrotation Xrotation
					JOINT Neck1
					{
						OFFSET 0.000000 1.600000 0.340000
						CHANNELS 3 Zrotation Yrotation Xrotation
						JOINT Head
						{
							OFFSET 0.000000 1.667000 -0.240000
							CHANNELS 3 Zrotation Yrotation Xrotation
							End Site
							{
								OFFSET 0.000000 0.000000 0.000000
							}
						}
					}
				}
				JOINT LeftShoulder
				{
					OFFSET 0.000000 0.000000 0.000000
					CHANNELS 3 Zrotation Yrotation Xrotation
					JOINT LeftArm
					{
						OFFSET 2.700000 1.550000 -0.730000
						CHANNELS 3 Zrotation Yrotation Xrotation
						JOINT LeftForeArm
						{
							OFFSET 5.450000 0.000000 0.000000
							CHANNELS 3 Zrotation Yrotation Xrotation
							JOINT LeftHand
							{
								OFFSET 3.450000 0.000000 0.000000
								CHANNELS 3 Zrotation Yrotation Xrotation
								JOINT LeftHandIndex1
								{
									OFFSET 0.750000 0.000000 0.000000
									CHANNELS 3 Zrotation Yrotation Xrotation
									End Site
									{
										OFFSET 0.000000 0.000000 0.000000
									}
								}
							}
						}
					}
				}
				JOINT RightShoulder
				{
					OFFSET 0.000000 0.000000 0.000000
					CHANNELS 3 Zrotation Yrotation Xrotation
					JOINT RightArm
					{
						OFFSET -2.700000 1.550000 -0.730000
						CHANNELS 3 Zrotation Yrotation Xrotation
						JOINT RightForeArm
						{
							OFFSET -5.450000 0.000000 0.000000
							CHANNELS 3 Zrotation Yrotation Xrotation
							JOINT RightHand
							{
								OFFSET -3.450000 0.000000 0.000000
								CHANNELS 3 Zrotation Yrotation Xrotation
								JOINT RightHandIndex1
								{
									OFFSET -0.750000 0.000000 0.000000
									CHANNELS 3 Zrotation Yrotation Xrotation
									End Site
									{
										OFFSET 0.000000 0.000000 0.000000
									}
								}
							}
						}
					}
				}
			}
		}
	}
}
MOTION
Frames: 6
Frame Time: 0.016667
-0.280260 16.498490 -1.625490 -7.331025 34.268425 -5.627132 -15.468403 12.575053 3.620593 1.366221 -7.718176 -26.798820 -1.029032 8.586101 45.411910 0.097031 7.875249 1.798492 0.558740 0.390300 0.252580 18.112031 -9.259956 4.004584 -20.465455 2.694323 -39.987163 9.323878 -3.699413 8.957978 0.051403 -2.533818 3.377526 0.375410 0.327100 0.134130 -3.557862 -2.436005 -8.685932 10.755799 -3.357986 29.567582 -4.555759 0.552075 14.639950 3.878676 -1.479365 -9.290557 -6.981498 -5.835588 40.155574 3.074790 -10.843680 -10.858160 -8.723003 -31.127197 2.515746 -13.257043 -42.300457 -3.838651 70.073722 -41.873324 -32.853148 -3.725886 2.474862 0.292660 0.118060 -0.085310 0.288220 0.853097 32.812385 4.431196 -14.942424 25.734116 -12.656410 -36.655392 15.132192 -7.147437 2.289021 -1.656823 -0.162610 0.364000 -0.087730 -0.019490 
-0.341840 16.543030 -1.599640 -8.182908 38.988868 -6.777640 -15.489154 12.669427 3.577281 1.269850 -7.707655 -26.641059 0.787852 7.380109 44.730801 0.076509 7.480992 1.946293 0.596520 0.466980 0.223040 18.083057 -9.425328 3.916161 -20.236179 2.615894 -40.281995 10.949596 -5.509199 16.119625 -0.005266 -3.195477 3.142382 0.411190 0.342560 0.121470 -3.665978 -2.414388 -8.592146 10.756211 -4.341271 29.565100 -4.468994 -0.711137 15.927599 3.609293 -0.251321 -9.028336 -5.128613 -6.232710 41.871176 4.747430 -11.496770 -9.900560 -7.482643 -33.392011 2.371816 -13.831978 -44.804600 -3.218963 71.451286 -42.473268 -34.159037 -3.731349 2.489221 0.238410 0.119610 -0.091370 0.339820 0.407614 33.415462 4.260429 -11.056269 27.018759 -12.876750 -42.260213 24.146725 -10.983410 2.157039 -1.687416 -0.130070 0.359910 -0.132270 0.027560 
-0.390090 16.608630 -1.583050 -9.131757 43.183874 -7.068572 -15.500484 12.602749 3.464391 0.870528 -7.538868 -27.022428 2.655518 6.109411 43.047966 -0.016818 6.983410 2.139357 0.566980 0.431450 0.190810 18.110915 -9.391165 4.065255 -20.402462 3.039564 -42.019059 12.977064 -7.941133 23.832513 -0.109205 -4.323953 2.740845 0.401170 0.390530 0.126400 -3.858302 -2.333648 -8.590266 11.612418 -5.247557 28.859590 -4.479814 -1.781893 16.477290 3.350412 0.094109 -8.661140 -4.697742 -6.288242 43.083037 4.453110 -11.855600 -7.956590 -6.542676 -34.144087 2.510555 -15.899897 -46.854052 -1.219620 74.124205 -43.973639 -36.850498 -3.773492 2.422914 0.194040 0.160270 -0.133950 0.347580 0.215747 33.278921 3.720648 -7.393646 28.991066 -12.521585 -47.803060 35.105650 -16.214859 1.981378 -1.577660 -0.137950 0.357970 -0.119150 0.042810 
-0.435550 16.699190 -1.570060 -10.407042 46.584758 -7.650308 -15.500562 12.522049 3.261570 0.968620 -6.934765 -27.044588 3.659683 5.375343 40.637993 -0.123584 6.453228 2.335988 0.514620 0.369800 0.148780 18.151510 -9.329737 4.306702 -19.504797 4.151094 -44.420368 13.363736 -10.521882 32.847502 -0.305186 -5.668018 2.300905 0.365490 0.424370 0.106240 -4.114669 -2.167855 -8.634812 13.060607 -5.998805 28.887197 -4.748884 -2.520449 16.107369 3.173413 0.367079 -8.529490 -4.372906 -6.017272 45.246574 5.349830 -12.182290 -7.036700 -5.715332 -34.239429 3.005259 -17.928826 -47.428454 0.644337 76.223055 -47.928543 -40.694194 -3.748012 2.245239 0.200180 0.170320 -0.157830 0.341390 -0.049502 32.805277 2.972338 -3.417640 31.066799 -11.677801 -51.251333 46.132796 -21.472183 1.801568 -1.302836 -0.163890 0.380080 -0.090670 0.044950 
-0.480890 16.820430 -1.543500 -11.638203 50.002694 -7.825497 -15.511250 12.425073 3.018175 1.299745 -6.170565 -26.876267 3.813763 4.869831 36.854819 -0.203784 5.699813 2.609506 0.502500 0.369410 0.119460 18.178258 -9.245677 4.590824 -18.105918 5.459540 -46.620243 13.561927 -12.934725 40.774671 -0.590502 -7.020130 1.876315 0.332860 0.433530 0.118480 -4.365568 -1.970053 -8.698626 14.520003 -6.536626 28.778160 -4.719100 -2.986401 15.558263 3.009396 0.557535 -8.563118 -4.020111 -6.537553 46.417444 6.295990 -13.179950 -6.966390 -5.302048 -33.839890 3.680540 -20.784253 -47.238463 2.426748 78.550400 -53.516087 -46.078154 -3.649896 2.022104 0.185070 0.165470 -0.142710 0.358640 0.058197 32.213359 2.465399 1.402749 32.056692 -11.092198 -58.047931 58.119421 -30.275141 1.581680 -0.849381 -0.128750 0.371590 -0.098170 0.079030 
-0.519120 16.953090 -1.521430 -12.730029 52.442952 -7.753376 -15.526688 12.281553 2.793112 1.659771 -5.462134 -26.994636 3.586955 4.662307 33.490919 -0.247682 5.071604 2.836144 0.485020 0.367120 0.084740 18.218566 -9.042424 4.949264 -16.296705 7.372636 -49.546871 12.924988 -15.123984 49.155845 -0.929496 -8.459524 1.448726 0.301780 0.435870 0.122650 -4.551015 -1.855674 -8.816775 15.710222 -6.727034 28.773850 -4.475674 -2.998203 14.877190 2.743381 0.402479 -8.773448 -4.379615 -6.820708 47.269253 6.942720 -14.096370 -6.358860 -4.824084 -33.218164 4.258964 -23.595973 -46.687100 3.410734 79.732521 -58.620057 -50.648468 -3.534650 1.775611 0.155520 0.161440 -0.138440 0.369940 0.151884 31.843205 2.207885 5.469380 31.978438 -11.002489 -63.372691 67.043905 -38.374963 1.367898 -0.273852 -0.092600 0.350000 -0.105760 0.112140 
